<mxfile host="app.diagrams.net" modified="2024-03-28T23:51:02.107Z" agent="Mozilla/5.0 (Macintosh; Intel Mac OS X 10_15_7) AppleWebKit/605.1.15 (KHTML, like Gecko) Version/17.2.1 Safari/605.1.15" version="24.2.1" etag="mwyZAHCOpyReFBIri15D" type="github">
  <diagram name="Page-1" id="7CPWeKHVVs186vG1mBIp">
    <mxGraphModel>
      <root>
        <mxCell id="0" />
        <mxCell id="1" parent="0" />
      </root>
    </mxGraphModel>
  </diagram>
</mxfile>
